HIERARCHY
ROOT Hips
{
	OFFSET -3.239625 85.722351 -2.300364
	CHANNELS 6 Xposition Yposition Zposition Zrotation Yrotation Xrotation 
	JOINT Spine
	{
		OFFSET -0.000000 8.814246 -2.080107
		CHANNELS 3 Zrotation Yrotation Xrotation
		JOINT Spine1
		{
			OFFSET -0.000000 8.844141 0.000000
			CHANNELS 3 Zrotation Yrotation Xrotation
			JOINT Spine2
			{
				OFFSET 0.000000 11.682268 0.000000
				CHANNELS 3 Zrotation Yrotation Xrotation
				JOINT Spine3
				{
					OFFSET 0.000000 11.746700 0.000000
					CHANNELS 3 Zrotation Yrotation Xrotation
					JOINT Neck
					{
						OFFSET -0.000000 17.658264 -0.000000
						CHANNELS 3 Zrotation Yrotation Xrotation
						JOINT Neck1
						{
							OFFSET 0.000000 5.101515 0.000000
							CHANNELS 3 Zrotation Yrotation Xrotation
							JOINT Head
							{
								OFFSET 0.000000 5.101515 0.000000
								CHANNELS 3 Zrotation Yrotation Xrotation
								JOINT HeadEnd
								{
									OFFSET 0.000000 11.655085 -0.000000
									CHANNELS 3 Zrotation Yrotation Xrotation
									End Site
									{
										OFFSET 0.000000 0.000000 0.000000
									}
								}
							}
						}
					}
					JOINT RightShoulder
					{
						OFFSET -2.625389 11.175210 -0.000000
						CHANNELS 3 Zrotation Yrotation Xrotation
						JOINT RightArm
						{
							OFFSET -0.000000 10.434715 -0.000000
							CHANNELS 3 Zrotation Yrotation Xrotation
							JOINT RightForeArm
							{
								OFFSET 0.000000 29.628420 0.000000
								CHANNELS 3 Zrotation Yrotation Xrotation
								JOINT RightHand
								{
									OFFSET -0.000000 22.857611 -0.000000
									CHANNELS 3 Zrotation Yrotation Xrotation
									JOINT RightHandThumb1
									{
										OFFSET -2.867323 3.959563 2.944291
										CHANNELS 3 Zrotation Yrotation Xrotation
										JOINT RightHandThumb2
										{
											OFFSET 0.000000 3.350399 0.000000
											CHANNELS 3 Zrotation Yrotation Xrotation
											JOINT RightHandThumb3
											{
												OFFSET 0.000000 3.756509 -0.000000
												CHANNELS 3 Zrotation Yrotation Xrotation
												JOINT RightHandThumb4
												{
													OFFSET 0.000000 3.147345 0.000000
													CHANNELS 3 Zrotation Yrotation Xrotation
													End Site
													{
														OFFSET 0.000000 0.000000 0.000000
													}
												}
											}
										}
									}
									JOINT RightHandIndex1
									{
										OFFSET -0.086752 10.030893 2.345280
										CHANNELS 3 Zrotation Yrotation Xrotation
										JOINT RightHandIndex2
										{
											OFFSET 0.000000 4.061090 0.000000
											CHANNELS 3 Zrotation Yrotation Xrotation
											JOINT RightHandIndex3
											{
												OFFSET 0.000000 3.248873 0.000000
												CHANNELS 3 Zrotation Yrotation Xrotation
												JOINT RightHandIndex4
												{
													OFFSET 0.000000 2.639709 0.000000
													CHANNELS 3 Zrotation Yrotation Xrotation
													End Site
													{
														OFFSET 0.000000 0.000000 0.000000
													}
												}
											}
										}
									}
									JOINT RightHandMiddle1
									{
										OFFSET 0.104102 9.502952 0.006768
										CHANNELS 3 Zrotation Yrotation Xrotation
										JOINT RightHandMiddle2
										{
											OFFSET 0.000000 4.568727 0.000000
											CHANNELS 3 Zrotation Yrotation Xrotation
											JOINT RightHandMiddle3
											{
												OFFSET -0.000000 3.654981 -0.000000
												CHANNELS 3 Zrotation Yrotation Xrotation
												JOINT RightHandMiddle4
												{
													OFFSET 0.000000 2.741236 0.000000
													CHANNELS 3 Zrotation Yrotation Xrotation
													End Site
													{
														OFFSET 0.000000 0.000000 0.000000
													}
												}
											}
										}
									}
									JOINT RightHandRing1
									{
										OFFSET 0.086752 8.921708 -2.267442
										CHANNELS 3 Zrotation Yrotation Xrotation
										JOINT RightHandRing2
										{
											OFFSET -0.000000 4.061090 0.000000
											CHANNELS 3 Zrotation Yrotation Xrotation
											JOINT RightHandRing3
											{
												OFFSET -0.000000 3.654981 -0.000000
												CHANNELS 3 Zrotation Yrotation Xrotation
												JOINT RightHandRing4
												{
													OFFSET 0.000000 2.741236 0.000000
													CHANNELS 3 Zrotation Yrotation Xrotation
													End Site
													{
														OFFSET 0.000000 0.000000 0.000000
													}
												}
											}
										}
									}
									JOINT RightHandPinky1
									{
										OFFSET -0.173504 7.976997 -4.467199
										CHANNELS 3 Zrotation Yrotation Xrotation
										JOINT RightHandPinky2
										{
											OFFSET 0.000000 3.350399 0.000000
											CHANNELS 3 Zrotation Yrotation Xrotation
											JOINT RightHandPinky3
											{
												OFFSET 0.000000 2.842763 0.000000
												CHANNELS 3 Zrotation Yrotation Xrotation
												JOINT RightHandPinky4
												{
													OFFSET 0.000000 2.639709 0.000000
													CHANNELS 3 Zrotation Yrotation Xrotation
													End Site
													{
														OFFSET 0.000000 0.000000 0.000000
													}
												}
											}
										}
									}
									JOINT RightForeArmEnd
									{
										OFFSET 0.000000 0.000000 0.000000
										CHANNELS 3 Zrotation Yrotation Xrotation
										End Site
										{
											OFFSET 0.000000 0.000000 0.000000
										}
									}
								}
								JOINT RightArmEnd
								{
									OFFSET 0.000000 0.000000 0.000000
									CHANNELS 3 Zrotation Yrotation Xrotation
									End Site
									{
										OFFSET 0.000000 0.000000 0.000000
									}
								}
							}
						}
					}
					JOINT LeftShoulder
					{
						OFFSET 2.625389 11.175210 -0.000000
						CHANNELS 3 Zrotation Yrotation Xrotation
						JOINT LeftArm
						{
							OFFSET 0.000000 10.813635 0.000000
							CHANNELS 3 Zrotation Yrotation Xrotation
							JOINT LeftForeArm
							{
								OFFSET 0.000000 28.724781 -0.000000
								CHANNELS 3 Zrotation Yrotation Xrotation
								JOINT LeftHand
								{
									OFFSET 0.644384 25.716167 -0.328871
									CHANNELS 3 Zrotation Yrotation Xrotation
									JOINT LeftHandThumb1
									{
										OFFSET 2.867323 3.959563 2.944291
										CHANNELS 3 Zrotation Yrotation Xrotation
										JOINT LeftHandThumb2
										{
											OFFSET -0.000000 3.350399 -0.000000
											CHANNELS 3 Zrotation Yrotation Xrotation
											JOINT LeftHandThumb3
											{
												OFFSET 0.000000 3.756509 -0.000000
												CHANNELS 3 Zrotation Yrotation Xrotation
												JOINT LeftHandThumb4
												{
													OFFSET 0.000000 3.100000 -0.000000
													CHANNELS 3 Zrotation Yrotation Xrotation
													End Site
													{
														OFFSET 0.000000 0.000000 0.000000
													}
												}
											}
										}
									}
									JOINT LeftHandIndex1
									{
										OFFSET 0.086752 10.030893 2.345280
										CHANNELS 3 Zrotation Yrotation Xrotation
										JOINT LeftHandIndex2
										{
											OFFSET -0.000000 4.061090 0.000000
											CHANNELS 3 Zrotation Yrotation Xrotation
											JOINT LeftHandIndex3
											{
												OFFSET -0.000000 3.248873 0.000000
												CHANNELS 3 Zrotation Yrotation Xrotation
												JOINT LeftHandIndex4
												{
													OFFSET 0.000000 2.639709 -0.000000
													CHANNELS 3 Zrotation Yrotation Xrotation
													End Site
													{
														OFFSET 0.000000 0.000000 0.000000
													}
												}
											}
										}
									}
									JOINT LeftHandMiddle1
									{
										OFFSET -0.104102 9.502952 0.006768
										CHANNELS 3 Zrotation Yrotation Xrotation
										JOINT LeftHandMiddle2
										{
											OFFSET -0.000000 4.568727 0.000000
											CHANNELS 3 Zrotation Yrotation Xrotation
											JOINT LeftHandMiddle3
											{
												OFFSET 0.000000 3.654981 -0.000000
												CHANNELS 3 Zrotation Yrotation Xrotation
												JOINT LeftHandMiddle4
												{
													OFFSET -0.000000 2.741236 0.000000
													CHANNELS 3 Zrotation Yrotation Xrotation
													End Site
													{
														OFFSET 0.000000 0.000000 0.000000
													}
												}
											}
										}
									}
									JOINT LeftHandRing1
									{
										OFFSET -0.086752 8.921708 -2.267442
										CHANNELS 3 Zrotation Yrotation Xrotation
										JOINT LeftHandRing2
										{
											OFFSET -0.000000 4.061090 0.000000
											CHANNELS 3 Zrotation Yrotation Xrotation
											JOINT LeftHandRing3
											{
												OFFSET 0.000000 3.654981 -0.000000
												CHANNELS 3 Zrotation Yrotation Xrotation
												JOINT LeftHandRing4
												{
													OFFSET 0.000000 2.741236 -0.000000
													CHANNELS 3 Zrotation Yrotation Xrotation
													End Site
													{
														OFFSET 0.000000 0.000000 0.000000
													}
												}
											}
										}
									}
									JOINT LeftHandPinky1
									{
										OFFSET 0.173504 7.976997 -4.467199
										CHANNELS 3 Zrotation Yrotation Xrotation
										JOINT LeftHandPinky2
										{
											OFFSET 0.000000 3.350399 0.000000
											CHANNELS 3 Zrotation Yrotation Xrotation
											JOINT LeftHandPinky3
											{
												OFFSET -0.000000 2.842763 0.000000
												CHANNELS 3 Zrotation Yrotation Xrotation
												JOINT LeftHandPinky4
												{
													OFFSET 0.000000 2.639709 -0.000000
													CHANNELS 3 Zrotation Yrotation Xrotation
													End Site
													{
														OFFSET 0.000000 0.000000 0.000000
													}
												}
											}
										}
									}
									JOINT LeftForeArmEnd
									{
										OFFSET 0.000000 0.000000 0.000000
										CHANNELS 3 Zrotation Yrotation Xrotation
										End Site
										{
											OFFSET 0.000000 0.000000 0.000000
										}
									}
								}
								JOINT LeftArmEnd
								{
									OFFSET 0.000000 0.000000 0.000000
									CHANNELS 3 Zrotation Yrotation Xrotation
									End Site
									{
										OFFSET 0.000000 0.000000 0.000000
									}
								}
							}
						}
					}
				}
			}
		}
	}
	JOINT RightUpLeg
	{
		OFFSET -11.289943 0.000000 -0.000000
		CHANNELS 3 Zrotation Yrotation Xrotation
		JOINT RightLeg
		{
			OFFSET 0.000000 -38.200325 0.000000
			CHANNELS 3 Zrotation Yrotation Xrotation
			JOINT RightFoot
			{
				OFFSET -0.000000 -39.900856 0.000000
				CHANNELS 3 Zrotation Yrotation Xrotation
				JOINT RightToeBase
				{
					OFFSET -0.000000 -0.000000 15.261641
					CHANNELS 3 Zrotation Yrotation Xrotation
					JOINT RightToeBaseEnd
					{
						OFFSET -0.000000 0.000000 7.370709
						CHANNELS 3 Zrotation Yrotation Xrotation
						End Site
						{
							OFFSET 0.000000 0.000000 0.000000
						}
					}
				}
				JOINT RightLegEnd
				{
					OFFSET 0.000000 0.000000 0.000000
					CHANNELS 3 Zrotation Yrotation Xrotation
					End Site
					{
						OFFSET 0.000000 0.000000 0.000000
					}
				}
			}
			JOINT RightUpLegEnd
			{
				OFFSET 0.000000 0.000000 0.000000
				CHANNELS 3 Zrotation Yrotation Xrotation
				End Site
				{
					OFFSET 0.000000 0.000000 0.000000
				}
			}
		}
	}
	JOINT LeftUpLeg
	{
		OFFSET 11.315661 0.000000 -0.000000
		CHANNELS 3 Zrotation Yrotation Xrotation
		JOINT LeftLeg
		{
			OFFSET -0.000000 -38.200325 0.000000
			CHANNELS 3 Zrotation Yrotation Xrotation
			JOINT LeftFoot
			{
				OFFSET 0.000000 -39.900856 0.000000
				CHANNELS 3 Zrotation Yrotation Xrotation
				JOINT LeftToeBase
				{
					OFFSET -0.000000 -0.000000 15.261641
					CHANNELS 3 Zrotation Yrotation Xrotation
					JOINT LeftToeBaseEnd
					{
						OFFSET 0.000000 -0.000000 7.539996
						CHANNELS 3 Zrotation Yrotation Xrotation
						End Site
						{
							OFFSET 0.000000 0.000000 0.000000
						}
					}
				}
				JOINT LeftLegEnd
				{
					OFFSET 0.000000 0.000000 0.000000
					CHANNELS 3 Zrotation Yrotation Xrotation
					End Site
					{
						OFFSET 0.000000 0.000000 0.000000
					}
				}
			}
			JOINT LeftUpLegEnd
			{
				OFFSET 0.000000 0.000000 0.000000
				CHANNELS 3 Zrotation Yrotation Xrotation
				End Site
				{
					OFFSET 0.000000 0.000000 0.000000
				}
			}
		}
	}
}
MOTION
Frames: 5
Frame Time: 0.016667
-3.239625 85.722351 -2.300364 -0.738432 20.420433 -16.286148 0.147713 -0.133264 5.911764 2.622282 -0.898274 4.462842 3.305197 -3.000552 14.388568 -1.917923 -0.671342 -0.034097 8.421726 -6.125597 10.958267 -3.543684 -6.039143 -6.498808 2.697907 4.092662 -24.078585 -0.000000 0.000000 -0.000000 98.735481 -0.916548 5.493021 56.300323 -33.113346 0.798322 2.878472 18.391832 38.805328 2.676628 10.889645 -13.441619 12.435397 -1.968814 39.088257 0.000000 0.000000 -30.240000 0.000000 -0.000000 -21.000000 0.000000 0.000000 -0.000000 23.775255 0.000000 -8.580168 16.642677 -0.000000 0.000000 16.642677 -0.000000 -0.000000 -0.000000 0.000000 0.000000 22.605158 0.000000 -9.950236 15.823611 0.000000 -0.000000 15.823611 0.000000 -0.000000 -0.000000 -0.000000 -0.000000 20.494370 -0.000000 -10.304833 14.346059 0.000000 0.000000 14.346059 -0.000000 -0.000000 -0.000000 -0.000000 0.000000 17.448748 0.000000 -12.588784 12.214124 -0.000000 0.000000 12.214124 0.000000 -0.000000 -0.000000 -0.000000 -0.000000 -0.000000 -0.000000 -0.000000 -0.000000 -0.000000 0.000000 -92.280838 0.181593 3.436330 -65.160477 31.405672 -1.656685 -1.890198 -11.055023 46.965694 1.528051 -16.582802 -13.734725 -11.835789 1.931521 39.346298 -0.000000 -0.000000 -28.799999 -0.000000 0.000000 -20.000000 -0.000000 0.000000 -0.000000 -25.840471 -0.000000 -10.312559 -18.088329 0.000000 -0.000000 -18.088329 0.000000 0.000000 0.000000 0.000000 -0.000000 -24.080235 -0.000000 -11.217409 -16.856165 0.000000 0.000000 -16.856165 0.000000 0.000000 -0.000000 0.000000 0.000000 -20.890856 -0.000000 -10.270787 -14.623599 0.000000 -0.000000 -14.623599 -0.000000 -0.000000 -0.000000 0.000000 -0.000000 -16.614309 -0.000000 -10.062504 -11.630016 0.000000 -0.000000 -11.630016 0.000000 -0.000000 0.000000 0.000000 0.000000 0.000000 -0.000000 -0.000000 0.000000 0.000000 0.000000 6.352099 -16.347692 20.298004 -0.043205 -0.214846 9.244078 -11.196820 -23.501398 14.500772 0.333393 -1.332539 -28.711687 0.000000 -0.000000 0.000000 0.000000 0.000000 0.000000 -0.000000 0.000000 -0.000000 16.453083 11.106601 5.003009 0.280452 0.871896 17.932676 -5.898417 5.202814 24.112564 0.948795 1.198894 -29.269045 0.000000 0.000000 0.000000 -0.000000 -0.000000 0.000000 0.000000 -0.000000 -0.000000 
-3.237520 85.727585 -2.287904 -0.704845 20.472672 -16.204655 0.161831 -0.147317 5.916928 2.621408 -0.896849 4.375634 3.269565 -2.978654 14.427532 -1.930861 -0.662513 -0.080754 8.350801 -6.064255 10.857430 -3.544251 -6.008075 -6.554993 2.699261 4.085629 -24.055323 0.000000 0.000000 -0.000000 98.733154 -0.919818 5.515231 56.300396 -33.044731 0.795587 2.923611 18.161661 38.696339 2.740236 10.787416 -13.521894 12.435397 -1.968814 39.088257 -0.000000 0.000000 -30.240000 0.000000 -0.000000 -21.000000 -0.000000 0.000000 -0.000000 24.204132 0.000000 -8.557627 16.942892 -0.000000 -0.000000 16.942892 0.000000 -0.000000 -0.000000 0.000000 0.000000 22.967558 0.000000 -9.915044 16.077291 0.000000 -0.000000 16.077291 -0.000000 -0.000000 0.000000 -0.000000 -0.000000 20.716385 0.000000 -10.242458 14.501470 0.000000 -0.000000 14.501470 -0.000000 0.000000 -0.000000 0.000000 -0.000000 17.530621 0.000000 -12.499724 12.271435 0.000000 -0.000000 12.271435 0.000000 -0.000000 -0.000000 -0.000000 -0.000000 -0.000000 -0.000000 -0.000000 -0.000000 -0.000000 -0.000000 -92.291397 0.182079 3.435340 -65.122017 31.445436 -1.615123 -1.888558 -11.004932 46.933495 1.598451 -16.425325 -13.726241 -11.835789 1.931521 39.346298 0.000000 0.000000 -28.799999 0.000000 0.000000 -20.000000 -0.000000 0.000000 -0.000000 -26.122183 -0.000000 -10.214998 -18.285528 0.000000 -0.000000 -18.285528 -0.000000 -0.000000 0.000000 -0.000000 -0.000000 -24.277594 -0.000000 -11.136810 -16.994316 -0.000000 0.000000 -16.994316 0.000000 -0.000000 0.000000 0.000000 0.000000 -20.920750 -0.000000 -10.225520 -14.644526 0.000000 -0.000000 -14.644526 -0.000000 0.000000 -0.000000 0.000000 -0.000000 -16.494598 -0.000000 -10.061997 -11.546219 -0.000000 0.000000 -11.546219 0.000000 -0.000000 0.000000 0.000000 0.000000 0.000000 -0.000000 -0.000000 0.000000 0.000000 0.000000 6.324769 -16.384171 20.238495 -0.043258 -0.215726 9.244252 -11.192114 -23.500404 14.492900 0.333489 -1.332362 -28.715017 -0.000000 -0.000000 0.000000 0.000000 0.000000 0.000000 -0.000000 0.000000 -0.000000 16.380781 11.075962 4.931677 0.280704 0.872688 17.908491 -5.893350 5.268976 24.155699 0.947574 1.197550 -29.289505 -0.000000 -0.000000 0.000000 -0.000000 0.000000 0.000000 0.000000 -0.000000 -0.000000 
-3.232973 85.732445 -2.273386 -0.668444 20.533524 -16.136309 0.161616 -0.161191 5.903170 2.608314 -0.894095 4.319812 3.257336 -2.961273 14.452080 -1.945104 -0.650948 -0.118798 8.283524 -6.009236 10.815933 -3.543760 -5.967571 -6.574438 2.703444 4.078764 -23.978624 0.000000 0.000000 0.000000 98.735115 -0.921951 5.527399 56.264999 -33.001720 0.809492 2.978341 17.914064 38.573364 2.759670 10.637834 -13.527735 12.435397 -1.968814 39.088257 -0.000000 0.000000 -30.240000 0.000000 -0.000000 -21.000000 -0.000000 0.000000 0.000000 24.697664 -0.000000 -8.618873 17.288364 -0.000000 0.000000 17.288364 0.000000 -0.000000 0.000000 -0.000000 -0.000000 23.401489 -0.000000 -9.960974 16.381042 -0.000000 -0.000000 16.381042 -0.000000 -0.000000 0.000000 -0.000000 0.000000 21.037107 -0.000000 -10.271316 14.725975 0.000000 -0.000000 14.725975 0.000000 0.000000 0.000000 -0.000000 0.000000 17.738716 -0.000000 -12.520205 12.417102 0.000000 -0.000000 12.417102 0.000000 -0.000000 -0.000000 0.000000 -0.000000 -0.000000 0.000000 -0.000000 -0.000000 -0.000000 0.000000 -92.312866 0.183406 3.438796 -65.074966 31.477816 -1.557976 -1.890872 -10.953207 46.894722 1.678475 -16.260990 -13.748887 -11.835789 1.931521 39.346298 0.000000 0.000000 -28.799999 0.000000 -0.000000 -20.000000 0.000000 0.000000 0.000000 -26.367565 0.000000 -10.168489 -18.457294 0.000000 -0.000000 -18.457294 0.000000 -0.000000 -0.000000 0.000000 -0.000000 -24.444035 0.000000 -11.110037 -17.110825 -0.000000 -0.000000 -17.110825 0.000000 -0.000000 -0.000000 0.000000 0.000000 -20.929859 0.000000 -10.240699 -14.650901 -0.000000 -0.000000 -14.650901 0.000000 -0.000000 -0.000000 0.000000 -0.000000 -16.361935 0.000000 -10.126378 -11.453354 0.000000 -0.000000 -11.453354 -0.000000 0.000000 0.000000 0.000000 0.000000 0.000000 -0.000000 -0.000000 0.000000 0.000000 0.000000 6.292983 -16.416670 20.197840 -0.043321 -0.216741 9.246082 -11.180166 -23.506433 14.483719 0.333285 -1.332122 -28.715006 0.000000 0.000000 0.000000 0.000000 0.000000 0.000000 -0.000000 0.000000 0.000000 16.310019 11.054890 4.880430 0.280928 0.873437 17.873283 -5.883231 5.314485 24.198494 0.945933 1.195946 -29.306461 0.000000 -0.000000 0.000000 -0.000000 -0.000000 0.000000 0.000000 0.000000 -0.000000 
-3.225271 85.737381 -2.253752 -0.629590 20.600163 -16.103786 0.146711 -0.167575 5.902655 2.606320 -0.893203 4.282391 3.255725 -2.941558 14.464988 -1.960875 -0.639279 -0.153074 8.233142 -5.956826 10.850741 -3.527449 -5.911270 -6.545368 2.720912 4.073450 -23.872843 -0.000000 0.000000 -0.000000 98.744286 -0.923109 5.528680 56.239391 -33.014229 0.818004 3.026656 17.777943 38.486248 2.803292 10.550333 -13.587255 12.735312 -1.985468 38.960350 -0.000000 -0.000000 -30.959999 -0.000000 0.000000 -21.500000 -0.000000 -0.000000 0.000000 25.206198 0.000000 -8.686983 17.644339 -0.000000 -0.000000 17.644339 0.000000 -0.000000 0.000000 -0.000000 0.000000 23.841486 -0.000000 -10.011729 16.689039 0.000000 -0.000000 16.689039 0.000000 -0.000000 -0.000000 -0.000000 0.000000 21.333712 -0.000000 -10.317556 14.933599 0.000000 -0.000000 14.933599 0.000000 0.000000 0.000000 -0.000000 0.000000 17.885494 0.000000 -12.580191 12.519845 0.000000 -0.000000 12.519845 -0.000000 0.000000 -0.000000 0.000000 -0.000000 -0.000000 -0.000000 -0.000000 -0.000000 -0.000000 -0.000000 -92.331284 0.185144 3.456599 -65.037148 31.493355 -1.505857 -1.894369 -10.925201 46.862782 1.731758 -16.114040 -13.801489 -12.135554 1.950834 39.216908 -0.000000 -0.000000 -29.520000 -0.000000 0.000000 -20.500000 -0.000000 0.000000 -0.000000 -26.643034 0.000000 -10.247046 -18.650124 0.000000 -0.000000 -18.650124 0.000000 -0.000000 0.000000 0.000000 -0.000000 -24.627020 0.000000 -11.187176 -17.238913 0.000000 0.000000 -17.238913 0.000000 0.000000 -0.000000 -0.000000 -0.000000 -20.925840 0.000000 -10.328904 -14.648088 0.000000 0.000000 -14.648088 -0.000000 -0.000000 -0.000000 0.000000 -0.000000 -16.185768 0.000000 -10.236579 -11.330037 -0.000000 0.000000 -11.330037 0.000000 -0.000000 -0.000000 0.000000 0.000000 0.000000 -0.000000 -0.000000 0.000000 0.000000 0.000000 6.251276 -16.444281 20.200478 -0.043392 -0.217889 9.234835 -11.166377 -23.529989 14.475808 0.332628 -1.331866 -28.715523 0.000000 -0.000000 0.000000 0.000000 0.000000 0.000000 -0.000000 -0.000000 -0.000000 16.252438 11.059496 4.880213 0.281128 0.874162 17.818600 -5.865599 5.318405 24.242792 0.944324 1.193630 -29.320524 0.000000 -0.000000 0.000000 -0.000000 0.000000 0.000000 0.000000 0.000000 -0.000000 
-3.213970 85.738449 -2.230835 -0.582835 20.672237 -16.086908 0.118631 -0.168113 5.912140 2.629722 -0.897098 4.279846 3.214730 -2.913407 14.418084 -1.963930 -0.630538 -0.193673 8.201876 -5.908660 10.974739 -3.513314 -5.850250 -6.454349 2.734712 4.064546 -23.756498 0.000000 0.000000 0.000000 98.755096 -0.924327 5.529311 56.241928 -33.125011 0.804563 3.078634 17.745981 38.394924 2.847100 10.477966 -13.600153 12.735312 -1.985468 38.960350 0.000000 0.000000 -30.959999 -0.000000 0.000000 -21.500000 -0.000000 0.000000 -0.000000 25.688015 0.000000 -8.777122 17.981609 -0.000000 0.000000 17.981609 0.000000 0.000000 0.000000 0.000000 -0.000000 24.256762 -0.000000 -10.091281 16.979733 0.000000 0.000000 16.979733 -0.000000 -0.000000 -0.000000 -0.000000 -0.000000 21.611462 -0.000000 -10.406063 15.128023 0.000000 0.000000 15.128023 -0.000000 -0.000000 0.000000 -0.000000 -0.000000 18.019297 0.000000 -12.696719 12.613507 -0.000000 0.000000 12.613507 -0.000000 -0.000000 -0.000000 0.000000 -0.000000 -0.000000 0.000000 -0.000000 -0.000000 -0.000000 0.000000 -92.350021 0.187114 3.479181 -65.013870 31.498840 -1.498656 -1.895896 -10.886476 46.852791 1.827145 -15.972471 -13.896369 -12.135554 1.950834 39.216908 -0.000000 -0.000000 -29.520000 0.000000 0.000000 -20.500000 -0.000000 0.000000 -0.000000 -27.175001 0.000000 -10.345688 -19.022501 0.000000 -0.000000 -19.022501 -0.000000 0.000000 -0.000000 0.000000 0.000000 -25.027048 0.000000 -11.288478 -17.518934 0.000000 -0.000000 -17.518934 -0.000000 -0.000000 0.000000 0.000000 0.000000 -21.061693 0.000000 -10.431256 -14.743185 0.000000 -0.000000 -14.743185 -0.000000 0.000000 0.000000 0.000000 -0.000000 -16.071838 0.000000 -10.345636 -11.250286 0.000000 -0.000000 -11.250286 -0.000000 -0.000000 0.000000 0.000000 0.000000 0.000000 -0.000000 -0.000000 0.000000 0.000000 0.000000 6.201340 -16.461618 20.228949 -0.043471 -0.219167 9.217037 -11.149405 -23.572384 14.450568 0.331367 -1.331638 -28.696079 0.000000 -0.000000 0.000000 0.000000 0.000000 0.000000 0.000000 0.000000 0.000000 16.197350 11.085167 4.906466 0.281310 0.874879 17.757015 -5.843118 5.285795 24.274418 0.942871 1.191052 -29.323978 0.000000 0.000000 0.000000 -0.000000 -0.000000 0.000000 0.000000 0.000000 -0.000000 
